<svg width="247" height="84" viewBox="0 0 247 84" fill="none" xmlns="http://www.w3.org/2000/svg">
<path d="M44.6467 8.77191C40.8417 5.58585 35.2612 3.97266 28.0618 3.97266C21.5006 3.97266 15.8995 4.32011 11.415 5.00882L11.2614 5.03365L0 65.8883H13.5184L17.2879 46.3439C18.2835 46.4462 19.7369 46.4959 21.7192 46.4959C30.6674 46.4959 37.7575 44.256 42.7914 39.8352C47.8254 35.4145 50.3955 29.4332 50.3955 22.0808C50.3955 16.447 48.4576 11.9704 44.6467 8.77191ZM23.6365 10.8846C24.6734 10.7822 25.7192 10.7295 26.7443 10.7295C30.0707 10.7295 32.5936 11.5733 34.245 13.2361C35.8964 14.899 36.7294 17.4366 36.7294 20.784C36.7294 26.2317 35.2789 30.8168 32.4193 34.4155C29.5596 38.0142 25.861 39.8197 21.3972 39.8197C20.4368 39.8002 19.4781 39.7245 18.5257 39.5933L23.6365 10.8846Z" fill="#ED1F29"/>
<path d="M158.318 8.77191C154.511 5.58585 148.93 3.97266 141.731 3.97266C135.169 3.97266 129.568 4.32011 125.084 5.00882L124.93 5.03365L113.678 65.8883H127.196L130.966 46.3439C131.961 46.4462 133.415 46.4959 135.397 46.4959C144.345 46.4959 151.435 44.256 156.469 39.8352C161.503 35.4145 164.073 29.4332 164.073 22.0808C164.073 16.447 162.138 11.9704 158.318 8.77191ZM137.305 10.8846C138.342 10.7822 139.373 10.7295 140.416 10.7295C143.743 10.7295 146.265 11.5733 147.917 13.2361C149.568 14.899 150.398 17.4366 150.398 20.784C150.398 26.2317 148.951 30.8168 146.091 34.4155C143.231 38.0142 139.53 39.8197 135.069 39.8197C134.109 39.8004 133.15 39.7248 132.198 39.5933L137.305 10.8846Z" fill="#ED1F29"/>
<path d="M61.7814 20.4936C63.8616 20.4957 65.8595 19.6404 67.3456 18.1118C68.8317 16.5831 69.6872 14.5032 69.7282 12.3191C69.749 11.5505 69.6236 10.7854 69.3593 10.0683C69.095 9.35134 68.6972 8.69691 68.189 8.14339C67.1639 7.03897 65.8257 6.47743 64.1654 6.47743C62.0579 6.44554 60.024 7.29097 58.5082 8.82898C57.745 9.56928 57.1398 10.4709 56.7324 11.4746C56.3251 12.4783 56.1248 13.5612 56.1448 14.652C56.1239 15.4203 56.2496 16.1853 56.5144 16.9019C56.7793 17.6185 57.1779 18.2722 57.6869 18.8246C58.7002 19.9321 60.0798 20.4936 61.7814 20.4936Z" fill="#ED1F29"/>
<path d="M69.9495 58.0706C65.3528 61.1171 63.7723 59.7117 63.7723 59.7117C62.2007 58.9548 62.3454 55.8959 62.4282 54.3013C62.4892 53.3591 62.5977 52.4208 62.7532 51.4906L67.4799 25.1211H54.4312L54.0235 27.3827L52.7562 34.4249C52.7562 34.4249 52.0235 38.4796 52.0265 38.4796L50.9541 44.5074C50.0235 49.5052 49.5538 53.2682 49.5538 55.6942C49.5506 56.5486 49.6169 57.4018 49.7518 58.2443C50.0589 60.3434 50.9725 62.2926 52.3692 63.8285C55.6631 67.3868 61.7546 68.3299 65.9968 66.4065C70.2391 64.4831 69.9495 58.0706 69.9495 58.0706Z" fill="#ED1F29"/>
<path d="M204.878 58.0695C200.279 61.116 198.701 59.7107 198.701 59.7107C197.481 59.1243 197.295 57.1575 197.31 55.5567C197.375 54.9703 197.437 54.4554 197.454 54.0862C197.516 53.1502 197.625 52.2182 197.779 51.2941L202.477 25.1572L202.515 24.9432H189.466L189.428 25.1572H189.366L189.07 26.8697C186.911 25.098 184.239 24.1573 181.499 24.2048C175.759 24.2048 170.5 27.0962 165.871 32.7951C161.242 38.494 158.908 45.347 158.908 53.1989C158.908 57.4987 159.939 60.8895 161.966 63.2814C163.992 65.6733 167.003 66.8987 170.887 66.8987C176.332 66.8987 181.006 64.1873 184.796 58.8327C185.166 60.7208 186.036 62.4607 187.307 63.8522C190.598 67.4106 196.692 68.3537 200.932 66.4302C205.171 64.5068 204.878 58.0695 204.878 58.0695ZM186.819 39.3099C185.2 44.8599 183.602 49.6127 181.502 53.2703C179.333 57.0644 177.195 58.9909 175.147 58.9909C174.674 59.0109 174.203 58.9112 173.775 58.7001C173.346 58.489 172.972 58.1727 172.684 57.7779C172.06 56.962 171.744 55.6994 171.744 54.0335C171.762 48.7836 173.116 43.6341 175.664 39.1176C178.243 34.4331 180.946 32.0599 183.703 32.0599C185.691 32.0599 187 32.8075 187.703 34.3369C187.712 34.3431 187.265 37.7836 186.819 39.3099Z" fill="#ED1F29"/>
<path d="M94.4806 16.073C95.5529 9.8343 97.3904 6.67304 99.9458 6.67304C101.848 6.67304 102.773 7.75574 102.773 9.98629C102.773 11.6801 102.389 13.6284 101.636 15.7814L101.547 16.0327L102.188 16.1661C102.609 16.3216 103.042 16.4389 103.482 16.5166C104.107 16.6367 104.741 16.6959 105.376 16.6935C107.509 16.6935 109.181 16.0575 110.342 14.8104C111.503 13.5633 112.088 11.8229 112.088 9.64194C112.088 6.81885 110.983 4.47662 108.797 2.68039C106.61 0.88416 103.429 0 99.287 0C94.4333 0 90.4924 1.25953 87.5737 3.74137C84.655 6.22321 82.6845 9.9987 81.7185 14.9531L79.7805 25.1379H72.8766L71.6447 31.8947H78.5457L69.3877 83.4425H75.7569C77.6145 83.4402 79.4129 82.7571 80.8421 81.5111C82.2713 80.2651 83.2416 78.5344 83.5855 76.6175L91.6623 31.8792H104.584L105.819 25.1224H92.8942L94.4806 16.073Z" fill="#ED1F29"/>
<path d="M229.19 16.073C230.259 9.8343 232.099 6.67304 234.655 6.67304C236.557 6.67304 237.482 7.75574 237.482 9.98629C237.482 11.6801 237.098 13.6284 236.342 15.7814L236.256 16.0327L236.894 16.1661C237.316 16.3216 237.75 16.4388 238.191 16.5166C238.815 16.6366 239.448 16.6958 240.082 16.6935C242.218 16.6935 243.887 16.0575 245.051 14.8104C246.215 13.5633 246.797 11.8229 246.797 9.64194C246.797 6.81885 245.689 4.47662 243.506 2.68039C241.322 0.88416 238.138 0 233.996 0C229.142 0 225.198 1.25953 222.283 3.74137C219.367 6.22321 217.393 9.9987 216.427 14.9531L214.487 25.1379H207.586L206.351 31.8947H213.255L204.097 83.4425H210.466C212.323 83.4402 214.122 82.7571 215.551 81.5111C216.98 80.2651 217.951 78.5344 218.295 76.6175L226.371 31.8792H239.293L240.525 25.1224H227.603L229.19 16.073Z" fill="#ED1F29"/>
</svg>
